PathFileType	4	(X/Y/Z)	C:/Users/opensim2020/Desktop/walking_exp_matlab/subject06_walking15_straight_01.trc																																																																																																																																											
DataRate	CameraRate	NumFrames	NumMarkers	Units	OrigDataRate	OrigDataStartFrame	OrigNumFrames																																																																																																																																							
100	100	5	47	mm	100	921	232																																																																																																																																							
Frame#	Time	LFHD			RFHD			LBHD			RBHD			C7			T10			CLAV			STRN			RBAK			LSHO			LUPA			LELB			LFRM			LWRA			LWRB			LFIN			RSHO			RUPA			RELB			RFRM			RWRA			RWRB			RFIN			LASI			RASI			LPSI			RPSI			LTHI			LKNE			LTIB			LANK			LHEE			LTOE			RTHI			RKNE			RTIB			RANK			RHEE			RTOE			*39			*40			*41			*42			*43			*44			*45			*46		
		X1	Y1	Z1	X2	Y2	Z2	X3	Y3	Z3	X4	Y4	Z4	X5	Y5	Z5	X6	Y6	Z6	X7	Y7	Z7	X8	Y8	Z8	X9	Y9	Z9	X10	Y10	Z10	X11	Y11	Z11	X12	Y12	Z12	X13	Y13	Z13	X14	Y14	Z14	X15	Y15	Z15	X16	Y16	Z16	X17	Y17	Z17	X18	Y18	Z18	X19	Y19	Z19	X20	Y20	Z20	X21	Y21	Z21	X22	Y22	Z22	X23	Y23	Z23	X24	Y24	Z24	X25	Y25	Z25	X26	Y26	Z26	X27	Y27	Z27	X28	Y28	Z28	X29	Y29	Z29	X30	Y30	Z30	X31	Y31	Z31	X32	Y32	Z32	X33	Y33	Z33	X34	Y34	Z34	X35	Y35	Z35	X36	Y36	Z36	X37	Y37	Z37	X38	Y38	Z38	X39	Y39	Z39	X40	Y40	Z40	X41	Y41	Z41	X42	Y42	Z42	X43	Y43	Z43	X44	Y44	Z44	X45	Y45	Z45	X46	Y46	Z46	X47	Y47	Z47
																																																																																																																																														
146	1.45	237.98235	1646.59875	1363.88818	241.4942	1638.84229	1495.81836	106.60838	1587.69666	1368.50659	111.17185	1585.35132	1498.39685	110.02533	1431.34961	1423.01013	91.32901	1101.22754	1433.33984	223.33698	1357.80237	1427.25513	270.24167	1184.91272	1417.24951	40.0834	1255.58203	1492.42749	167.44025	1388.73865	1263.62805	196.36263	1189.12061	1190.67334	218.72777	1078.34973	1178.3468	321.47052	969.81982	1163.4469	440.6311	928.39453	1209.06287	398.29385	879.78052	1180.03674	482.81161	848.08777	1179.57361	166.02397	1386.45959	1586.5033	95.91466	1195.65747	1666.24182	86.48613	1073.72461	1679.33545	75.1988	954.39777	1700.06934	105.57069	803.1543	1680.04114	49.18268	819.1167	1712.59399	65.71027	736.1817	1720.33594	259.82547	941.42023	1318.43774	279.55627	956.91791	1538.93457	104.59715	969.87634	1361.28101	126.61179	976.37329	1529.27197	142.51598	631.35797	1278.26843	105.58138	470.63647	1303.15894	-50.50199	263.18597	1312.77087	-145.32858	118.93224	1358.1261	-191.64832	126.27493	1399.31104	-27.62251	37.80728	1378.17639	291.9675	629.74841	1606.25171	331.14511	513.75116	1575.43945	354.61093	249.66599	1576.13843	400.02826	69.33801	1533.84631	369.29282	42.93305	1485.78113	557.76202	57.25538	1530.3479	137.7986	1683.41235	1424.91699	NaN	NaN	NaN	NaN	NaN	NaN	NaN	NaN	NaN	NaN	NaN	NaN	NaN	NaN	NaN	NaN	NaN	NaN	NaN	NaN	NaN
147	1.46	247.89021	1647.65576	1364.3645	251.90999	1640.14209	1496.40613	117.04045	1588.08923	1369.28076	121.69534	1586.04077	1499.19751	120.97494	1432.12317	1423.99792	103.93282	1101.27283	1433.51001	234.23766	1358.73535	1427.9635	281.92453	1185.99036	1417.71948	51.79087	1255.10291	1493.54858	177.9781	1389.03369	1264.15308	206.66431	1188.76038	1191.72119	228.29733	1077.8335	1179.50537	329.79456	968.41321	1164.46326	449.0488	925.89197	1209.78833	406.45258	877.93414	1180.48047	490.60681	845.33789	1179.98669	177.51169	1386.71436	1587.6925	108.43368	1195.30249	1667.36084	99.53384	1073.24597	1680.35974	89.02642	953.80707	1700.92505	120.53523	802.86481	1680.35461	64.04206	818.27832	1712.97852	80.88706	735.46484	1720.42932	272.53329	941.60883	1318.58936	293.01859	958.11304	1539.31201	117.66666	970.08551	1361.64502	139.64243	978.18298	1529.81934	155.27892	631.336	1279.30261	118.75101	470.54803	1303.78308	-41.93267	266.87683	1313.05408	-140.12967	124.91427	1357.59583	-185.90773	134.04541	1398.70032	-26.47668	37.90802	1378.26062	304.28961	631.73804	1608.08374	342.15762	515.85583	1577.55884	365.91122	251.92075	1579.16248	404.93839	69.02335	1535.24316	371.78061	43.96785	1488.24072	561.72479	54.00362	1527.37122	147.6694	1684.04419	1425.54675	NaN	NaN	NaN	NaN	NaN	NaN	NaN	NaN	NaN	NaN	NaN	NaN	NaN	NaN	NaN	NaN	NaN	NaN	NaN	NaN	NaN
148	1.47	257.87579	1648.9397	1364.90369	262.24683	1641.58496	1496.85864	127.15089	1588.87976	1370.31555	132.07835	1586.98828	1500.1925	131.83759	1433.23413	1425.08716	116.30753	1101.73926	1433.71545	245.18065	1360.0741	1428.60779	293.65787	1187.54199	1418.22791	63.16244	1255.41309	1494.95032	188.57774	1389.65076	1264.68762	216.51599	1188.8429	1192.64355	237.76227	1077.65234	1180.70569	337.83817	967.03009	1165.7627	457.0719	923.07208	1210.53101	413.45319	875.52551	1181.43738	497.30841	842.08197	1180.72693	189.16219	1387.24194	1588.73438	121.35816	1195.22302	1668.50061	113.15508	1073.02832	1681.3728	103.56102	953.44147	1701.65161	136.22079	803.01733	1680.72852	79.44386	817.70526	1713.40149	97.38206	735.24292	1720.94739	285.43317	942.45441	1319.27942	306.57089	960.08319	1539.93555	130.67921	970.71582	1361.68103	152.38406	980.27155	1529.85266	168.8203	631.65021	1280.51392	133.03175	470.75647	1304.46301	-32.53122	271.16443	1313.64502	-134.1633	131.55826	1357.40991	-179.04889	142.48009	1398.68994	-25.72831	38.00668	1378.30334	315.8887	634.09363	1609.68665	353.75998	518.24652	1579.45007	375.39322	253.6422	1581.01294	407.34302	69.28524	1536.2644	372.82101	44.52706	1489.76074	563.54523	50.21339	1525.61926	157.59395	1685.06152	1426.27637	NaN	NaN	NaN	NaN	NaN	NaN	NaN	NaN	NaN	NaN	NaN	NaN	NaN	NaN	NaN	NaN	NaN	NaN	NaN	NaN	NaN
149	1.48	267.953	1650.43115	1365.47998	272.64587	1643.13245	1497.41064	137.32063	1590.07104	1371.23596	142.78967	1588.23608	1501.05627	142.82947	1434.53979	1426.01367	128.41031	1102.70471	1433.92444	256.16446	1361.52588	1429.24646	305.3277	1189.29578	1418.73438	74.70024	1256.38159	1496.24792	199.46266	1390.74451	1265.26685	226.39204	1189.48401	1193.76172	247.44194	1078.11938	1181.99158	346.11948	965.98706	1166.8291	464.47141	919.93878	1211.11462	419.97961	873.16559	1181.93152	503.31775	838.5592	1180.94885	200.83997	1388.19214	1589.68054	134.68625	1195.43884	1669.56702	127.27731	1073.19946	1682.37756	118.64705	953.46204	1702.37354	151.59781	802.96594	1680.61108	95.4457	817.54559	1713.91797	114.04454	735.24487	1721.15271	298.84497	943.97083	1320.77856	319.62045	962.64722	1540.31396	143.6669	971.6665	1361.64563	164.91051	982.45612	1529.76074	183.02026	632.15887	1281.76648	148.65216	471.0054	1305.1825	-22.30783	275.96649	1314.45898	-127.11175	138.8092	1357.70837	-170.78947	151.59973	1399.24365	-24.5811	38.12262	1378.93359	327.4845	636.6344	1610.74048	365.78467	520.65454	1579.94678	382.34164	254.56293	1582.61182	408.638	69.58121	1536.85461	373.2598	44.83214	1490.56494	564.1087	47.75387	1524.93323	167.80383	1686.33289	1427.12793	NaN	NaN	NaN	NaN	NaN	NaN	NaN	NaN	NaN	NaN	NaN	NaN	NaN	NaN	NaN	NaN	NaN	NaN	NaN	NaN	NaN
150	1.49	278.04327	1652.11633	1366.09558	283.08591	1644.76025	1497.96997	147.56889	1591.48193	1372.20068	153.41086	1589.65039	1501.93164	153.92104	1435.8363	1426.77686	140.43826	1104.16821	1434.27698	267.36087	1363.36328	1429.81421	317.09283	1191.22058	1419.22827	86.30775	1257.71936	1497.37817	210.34518	1392.30444	1265.86304	236.20226	1190.61401	1194.94336	257.2645	1079.19946	1183.44849	353.85095	965.15649	1168.07373	471.28204	916.65973	1211.70313	425.7272	870.79675	1183.078	508.34766	834.69489	1180.93481	212.54083	1389.50342	1590.34839	148.31929	1195.95154	1670.52454	141.98076	1073.69275	1683.16516	134.39285	953.78186	1702.86829	168.34407	803.89063	1680.68481	112.11317	817.75183	1714.48621	130.87761	735.47644	1721.02917	311.09076	945.43494	1321.87073	332.18521	965.57092	1540.71167	156.34483	972.93073	1361.80835	177.10931	984.82861	1529.78699	197.94839	632.54437	1283.04163	165.4189	471.09985	1306.06506	-10.82999	280.99326	1315.43091	-118.22306	146.49969	1358.31311	-161.01131	161.35678	1400.24377	-23.46193	38.50554	1379.03088	339.42169	639.23871	1611.33008	377.32855	522.45081	1579.88232	388.18613	255.39304	1583.45837	409.82938	69.77985	1536.90027	373.94714	45.30589	1491.22534	565.07233	46.12053	1525.15369	177.94144	1687.81543	1428.04675	NaN	NaN	NaN	NaN	NaN	NaN	NaN	NaN	NaN	NaN	NaN	NaN	NaN	NaN	NaN	NaN	NaN	NaN	NaN	NaN	NaN
